<?xml version="1.0" encoding="utf-8" standalone="no"?>
<!DOCTYPE svg PUBLIC "-//W3C//DTD SVG 1.1//EN"
  "http://www.w3.org/Graphics/SVG/1.1/DTD/svg11.dtd">
<svg height="355.685pt" version="1.1" viewBox="0 0 482.8 355.685" width="482.8pt" xmlns="http://www.w3.org/2000/svg" xmlns:xlink="http://www.w3.org/1999/xlink">
 <metadata>
  <rdf:RDF xmlns:cc="http://creativecommons.org/ns#" xmlns:dc="http://purl.org/dc/elements/1.1/" xmlns:rdf="http://www.w3.org/1999/02/22-rdf-syntax-ns#">
   <cc:Work>
    <dc:type rdf:resource="http://purl.org/dc/dcmitype/StillImage"/>
    <dc:date>2022-09-16T13:59:23.881049</dc:date>
    <dc:format>image/svg+xml</dc:format>
    <dc:creator>
     <cc:Agent>
      <dc:title>Matplotlib v3.4.3, https://matplotlib.org/</dc:title>
     </cc:Agent>
    </dc:creator>
   </cc:Work>
  </rdf:RDF>
 </metadata>
 <defs>
  <style type="text/css">*{stroke-linecap:butt;stroke-linejoin:round;}</style>
 </defs>
 <g id="figure_1">
  <g id="patch_1">
   <path d="M 0 355.685 
L 482.8 355.685 
L 482.8 0 
L 0 0 
z
" style="fill:none;"/>
  </g>
  <g id="axes_1">
   <g id="patch_2">
    <path d="M 29.2 333.36 
L 475.6 333.36 
L 475.6 7.2 
L 29.2 7.2 
z
" style="fill:#ffffff;"/>
   </g>
   <g id="matplotlib.axis_1">
    <g id="xtick_1">
     <g id="line2d_1">
      <defs>
       <path d="M 0 0 
L 0 3.5 
" id="mde03bef444" style="stroke:#000000;stroke-width:0.8;"/>
      </defs>
      <g>
       <use style="stroke:#000000;stroke-width:0.8;" x="49.490909" xlink:href="#mde03bef444" y="333.36"/>
      </g>
     </g>
     <g id="text_1">
      <!-- 0 -->
      <g transform="translate(46.990909 347.235)scale(0.1 -0.1)">
       <defs>
        <path d="M 225 2537 
Q 250 3200 412 3587 
Q 575 3975 875 4225 
Q 1175 4475 1612 4475 
Q 2050 4475 2375 4112 
Q 2700 3750 2800 3200 
Q 2900 2650 2862 1937 
Q 2825 1225 2612 775 
Q 2400 325 1975 150 
Q 1550 -25 1125 187 
Q 700 400 525 750 
Q 350 1100 275 1487 
Q 200 1875 225 2537 
z
M 750 2687 
Q 675 2000 800 1462 
Q 925 925 1212 700 
Q 1500 475 1800 612 
Q 2100 750 2237 1162 
Q 2375 1575 2375 2062 
Q 2375 2550 2337 2950 
Q 2300 3350 2112 3675 
Q 1925 4000 1612 4012 
Q 1300 4025 1062 3700 
Q 825 3375 750 2687 
z
" id="SimHei-30" transform="scale(0.015625)"/>
       </defs>
       <use xlink:href="#SimHei-30"/>
      </g>
     </g>
    </g>
    <g id="xtick_2">
     <g id="line2d_2">
      <g>
       <use style="stroke:#000000;stroke-width:0.8;" x="105.893714" xlink:href="#mde03bef444" y="333.36"/>
      </g>
     </g>
     <g id="text_2">
      <!-- 200 -->
      <g transform="translate(98.393714 347.235)scale(0.1 -0.1)">
       <defs>
        <path d="M 300 250 
Q 325 625 650 925 
Q 975 1225 1475 1862 
Q 1975 2500 2125 2850 
Q 2275 3200 2237 3450 
Q 2200 3700 2000 3862 
Q 1800 4025 1537 4000 
Q 1275 3975 1037 3800 
Q 800 3625 675 3275 
L 200 3350 
Q 400 3925 712 4187 
Q 1025 4450 1450 4475 
Q 1700 4500 1900 4462 
Q 2100 4425 2312 4287 
Q 2525 4150 2662 3875 
Q 2800 3600 2762 3212 
Q 2725 2825 2375 2287 
Q 2025 1750 1025 600 
L 2825 600 
L 2825 150 
L 300 150 
L 300 250 
z
" id="SimHei-32" transform="scale(0.015625)"/>
       </defs>
       <use xlink:href="#SimHei-32"/>
       <use x="50" xlink:href="#SimHei-30"/>
       <use x="100" xlink:href="#SimHei-30"/>
      </g>
     </g>
    </g>
    <g id="xtick_3">
     <g id="line2d_3">
      <g>
       <use style="stroke:#000000;stroke-width:0.8;" x="162.296519" xlink:href="#mde03bef444" y="333.36"/>
      </g>
     </g>
     <g id="text_3">
      <!-- 400 -->
      <g transform="translate(154.796519 347.235)scale(0.1 -0.1)">
       <defs>
        <path d="M 2000 1100 
L 75 1100 
L 75 1525 
L 2100 4450 
L 2475 4450 
L 2475 1525 
L 3075 1525 
L 3075 1100 
L 2475 1100 
L 2475 150 
L 2000 150 
L 2000 1100 
z
M 2000 1525 
L 2000 3500 
L 600 1525 
L 2000 1525 
z
" id="SimHei-34" transform="scale(0.015625)"/>
       </defs>
       <use xlink:href="#SimHei-34"/>
       <use x="50" xlink:href="#SimHei-30"/>
       <use x="100" xlink:href="#SimHei-30"/>
      </g>
     </g>
    </g>
    <g id="xtick_4">
     <g id="line2d_4">
      <g>
       <use style="stroke:#000000;stroke-width:0.8;" x="218.699324" xlink:href="#mde03bef444" y="333.36"/>
      </g>
     </g>
     <g id="text_4">
      <!-- 600 -->
      <g transform="translate(211.199324 347.235)scale(0.1 -0.1)">
       <defs>
        <path d="M 250 1612 
Q 275 1975 387 2225 
Q 500 2475 725 2850 
L 1750 4450 
L 2325 4450 
L 1275 2800 
Q 1950 2975 2350 2750 
Q 2750 2525 2887 2237 
Q 3025 1950 3037 1612 
Q 3050 1275 2937 950 
Q 2825 625 2537 362 
Q 2250 100 1737 75 
Q 1225 50 862 262 
Q 500 475 362 862 
Q 225 1250 250 1612 
z
M 1025 787 
Q 1250 550 1625 525 
Q 2000 500 2250 775 
Q 2500 1050 2500 1575 
Q 2500 2100 2187 2300 
Q 1875 2500 1487 2450 
Q 1100 2400 925 2075 
Q 750 1750 775 1387 
Q 800 1025 1025 787 
z
" id="SimHei-36" transform="scale(0.015625)"/>
       </defs>
       <use xlink:href="#SimHei-36"/>
       <use x="50" xlink:href="#SimHei-30"/>
       <use x="100" xlink:href="#SimHei-30"/>
      </g>
     </g>
    </g>
    <g id="xtick_5">
     <g id="line2d_5">
      <g>
       <use style="stroke:#000000;stroke-width:0.8;" x="275.102129" xlink:href="#mde03bef444" y="333.36"/>
      </g>
     </g>
     <g id="text_5">
      <!-- 800 -->
      <g transform="translate(267.602129 347.235)scale(0.1 -0.1)">
       <defs>
        <path d="M 175 1375 
Q 175 1675 325 1962 
Q 475 2250 825 2425 
Q 525 2600 425 2812 
Q 325 3025 312 3300 
Q 300 3575 387 3775 
Q 475 3975 650 4150 
Q 825 4325 1037 4387 
Q 1250 4450 1500 4450 
Q 1750 4450 1950 4400 
Q 2150 4350 2375 4187 
Q 2600 4025 2700 3725 
Q 2800 3425 2687 3025 
Q 2575 2625 2100 2400 
Q 2525 2275 2700 2012 
Q 2875 1750 2875 1375 
Q 2875 1000 2762 775 
Q 2650 550 2512 400 
Q 2375 250 2137 162 
Q 1900 75 1537 75 
Q 1175 75 912 162 
Q 650 250 475 425 
Q 300 600 237 837 
Q 175 1075 175 1375 
z
M 687 1400 
Q 675 1100 787 875 
Q 900 650 1200 587 
Q 1500 525 1825 600 
Q 2150 675 2275 950 
Q 2400 1225 2362 1500 
Q 2325 1775 2050 1962 
Q 1775 2150 1450 2125 
Q 1125 2100 912 1900 
Q 700 1700 687 1400 
z
M 775 3350 
Q 775 3100 950 2875 
Q 1125 2650 1500 2650 
Q 1875 2650 2062 2875 
Q 2250 3100 2237 3412 
Q 2225 3725 2012 3875 
Q 1800 4025 1437 4000 
Q 1075 3975 925 3787 
Q 775 3600 775 3350 
z
" id="SimHei-38" transform="scale(0.015625)"/>
       </defs>
       <use xlink:href="#SimHei-38"/>
       <use x="50" xlink:href="#SimHei-30"/>
       <use x="100" xlink:href="#SimHei-30"/>
      </g>
     </g>
    </g>
    <g id="xtick_6">
     <g id="line2d_6">
      <g>
       <use style="stroke:#000000;stroke-width:0.8;" x="331.504934" xlink:href="#mde03bef444" y="333.36"/>
      </g>
     </g>
     <g id="text_6">
      <!-- 1000 -->
      <g transform="translate(321.504934 347.235)scale(0.1 -0.1)">
       <defs>
        <path d="M 1400 3600 
Q 1075 3275 575 2975 
L 575 3450 
Q 1200 3875 1600 4450 
L 1900 4450 
L 1900 150 
L 1400 150 
L 1400 3600 
z
" id="SimHei-31" transform="scale(0.015625)"/>
       </defs>
       <use xlink:href="#SimHei-31"/>
       <use x="50" xlink:href="#SimHei-30"/>
       <use x="100" xlink:href="#SimHei-30"/>
       <use x="150" xlink:href="#SimHei-30"/>
      </g>
     </g>
    </g>
    <g id="xtick_7">
     <g id="line2d_7">
      <g>
       <use style="stroke:#000000;stroke-width:0.8;" x="387.907739" xlink:href="#mde03bef444" y="333.36"/>
      </g>
     </g>
     <g id="text_7">
      <!-- 1200 -->
      <g transform="translate(377.907739 347.235)scale(0.1 -0.1)">
       <use xlink:href="#SimHei-31"/>
       <use x="50" xlink:href="#SimHei-32"/>
       <use x="100" xlink:href="#SimHei-30"/>
       <use x="150" xlink:href="#SimHei-30"/>
      </g>
     </g>
    </g>
    <g id="xtick_8">
     <g id="line2d_8">
      <g>
       <use style="stroke:#000000;stroke-width:0.8;" x="444.310544" xlink:href="#mde03bef444" y="333.36"/>
      </g>
     </g>
     <g id="text_8">
      <!-- 1400 -->
      <g transform="translate(434.310544 347.235)scale(0.1 -0.1)">
       <use xlink:href="#SimHei-31"/>
       <use x="50" xlink:href="#SimHei-34"/>
       <use x="100" xlink:href="#SimHei-30"/>
       <use x="150" xlink:href="#SimHei-30"/>
      </g>
     </g>
    </g>
   </g>
   <g id="matplotlib.axis_2">
    <g id="ytick_1">
     <g id="line2d_9">
      <defs>
       <path d="M 0 0 
L -3.5 0 
" id="m589e918deb" style="stroke:#000000;stroke-width:0.8;"/>
      </defs>
      <g>
       <use style="stroke:#000000;stroke-width:0.8;" x="29.2" xlink:href="#m589e918deb" y="329.190555"/>
      </g>
     </g>
     <g id="text_9">
      <!-- 350 -->
      <g transform="translate(7.2 332.628055)scale(0.1 -0.1)">
       <defs>
        <path d="M 250 1225 
L 700 1300 
Q 800 975 1025 762 
Q 1250 550 1587 562 
Q 1925 575 2125 837 
Q 2325 1100 2300 1437 
Q 2275 1775 2037 1962 
Q 1800 2150 1275 2225 
L 1275 2550 
Q 1800 2600 2037 2825 
Q 2275 3050 2250 3412 
Q 2225 3775 1925 3937 
Q 1625 4100 1287 3975 
Q 950 3850 750 3275 
L 300 3350 
Q 450 3800 712 4100 
Q 975 4400 1425 4450 
Q 1875 4500 2212 4337 
Q 2550 4175 2687 3837 
Q 2825 3500 2725 3100 
Q 2625 2700 2150 2400 
Q 2500 2250 2687 1950 
Q 2875 1650 2812 1162 
Q 2750 675 2375 375 
Q 2000 75 1525 87 
Q 1050 100 700 387 
Q 350 675 250 1225 
z
" id="SimHei-33" transform="scale(0.015625)"/>
        <path d="M 550 1325 
Q 725 650 1150 575 
Q 1575 500 1837 662 
Q 2100 825 2212 1087 
Q 2325 1350 2312 1675 
Q 2300 2000 2137 2225 
Q 1975 2450 1725 2525 
Q 1475 2600 1162 2525 
Q 850 2450 650 2175 
L 225 2225 
Q 275 2375 700 4375 
L 2675 4375 
L 2675 3925 
L 1075 3925 
Q 950 3250 825 2850 
Q 1200 3025 1525 3012 
Q 1850 3000 2150 2862 
Q 2450 2725 2587 2487 
Q 2725 2250 2787 2012 
Q 2850 1775 2837 1500 
Q 2825 1225 2725 937 
Q 2625 650 2425 462 
Q 2225 275 1937 162 
Q 1650 50 1275 75 
Q 900 100 562 350 
Q 225 600 100 1200 
L 550 1325 
z
" id="SimHei-35" transform="scale(0.015625)"/>
       </defs>
       <use xlink:href="#SimHei-33"/>
       <use x="50" xlink:href="#SimHei-35"/>
       <use x="100" xlink:href="#SimHei-30"/>
      </g>
     </g>
    </g>
    <g id="ytick_2">
     <g id="line2d_10">
      <g>
       <use style="stroke:#000000;stroke-width:0.8;" x="29.2" xlink:href="#m589e918deb" y="286.904619"/>
      </g>
     </g>
     <g id="text_10">
      <!-- 360 -->
      <g transform="translate(7.2 290.342119)scale(0.1 -0.1)">
       <use xlink:href="#SimHei-33"/>
       <use x="50" xlink:href="#SimHei-36"/>
       <use x="100" xlink:href="#SimHei-30"/>
      </g>
     </g>
    </g>
    <g id="ytick_3">
     <g id="line2d_11">
      <g>
       <use style="stroke:#000000;stroke-width:0.8;" x="29.2" xlink:href="#m589e918deb" y="244.618683"/>
      </g>
     </g>
     <g id="text_11">
      <!-- 370 -->
      <g transform="translate(7.2 248.056183)scale(0.1 -0.1)">
       <defs>
        <path d="M 850 150 
Q 1300 2050 2425 3925 
L 275 3925 
L 275 4375 
L 2950 4375 
L 2950 3950 
Q 1775 2050 1400 150 
L 850 150 
z
" id="SimHei-37" transform="scale(0.015625)"/>
       </defs>
       <use xlink:href="#SimHei-33"/>
       <use x="50" xlink:href="#SimHei-37"/>
       <use x="100" xlink:href="#SimHei-30"/>
      </g>
     </g>
    </g>
    <g id="ytick_4">
     <g id="line2d_12">
      <g>
       <use style="stroke:#000000;stroke-width:0.8;" x="29.2" xlink:href="#m589e918deb" y="202.332747"/>
      </g>
     </g>
     <g id="text_12">
      <!-- 380 -->
      <g transform="translate(7.2 205.770247)scale(0.1 -0.1)">
       <use xlink:href="#SimHei-33"/>
       <use x="50" xlink:href="#SimHei-38"/>
       <use x="100" xlink:href="#SimHei-30"/>
      </g>
     </g>
    </g>
    <g id="ytick_5">
     <g id="line2d_13">
      <g>
       <use style="stroke:#000000;stroke-width:0.8;" x="29.2" xlink:href="#m589e918deb" y="160.046811"/>
      </g>
     </g>
     <g id="text_13">
      <!-- 390 -->
      <g transform="translate(7.2 163.484311)scale(0.1 -0.1)">
       <defs>
        <path d="M 800 75 
Q 1350 1000 1700 1750 
Q 1075 1650 662 1912 
Q 250 2175 162 2625 
Q 75 3075 175 3437 
Q 275 3800 487 4037 
Q 700 4275 1000 4375 
Q 1300 4475 1537 4475 
Q 1775 4475 2025 4375 
Q 2275 4275 2475 4075 
Q 2675 3875 2750 3662 
Q 2825 3450 2825 3112 
Q 2825 2775 2575 2250 
Q 2325 1725 1350 75 
L 800 75 
z
M 662 2875 
Q 700 2550 937 2337 
Q 1175 2125 1450 2150 
Q 1725 2175 1887 2300 
Q 2050 2425 2200 2725 
Q 2300 3100 2250 3362 
Q 2200 3625 1987 3800 
Q 1775 3975 1525 3975 
Q 1375 4000 1137 3900 
Q 900 3800 762 3500 
Q 625 3200 662 2875 
z
" id="SimHei-39" transform="scale(0.015625)"/>
       </defs>
       <use xlink:href="#SimHei-33"/>
       <use x="50" xlink:href="#SimHei-39"/>
       <use x="100" xlink:href="#SimHei-30"/>
      </g>
     </g>
    </g>
    <g id="ytick_6">
     <g id="line2d_14">
      <g>
       <use style="stroke:#000000;stroke-width:0.8;" x="29.2" xlink:href="#m589e918deb" y="117.760875"/>
      </g>
     </g>
     <g id="text_14">
      <!-- 400 -->
      <g transform="translate(7.2 121.198375)scale(0.1 -0.1)">
       <use xlink:href="#SimHei-34"/>
       <use x="50" xlink:href="#SimHei-30"/>
       <use x="100" xlink:href="#SimHei-30"/>
      </g>
     </g>
    </g>
    <g id="ytick_7">
     <g id="line2d_15">
      <g>
       <use style="stroke:#000000;stroke-width:0.8;" x="29.2" xlink:href="#m589e918deb" y="75.474939"/>
      </g>
     </g>
     <g id="text_15">
      <!-- 410 -->
      <g transform="translate(7.2 78.912439)scale(0.1 -0.1)">
       <use xlink:href="#SimHei-34"/>
       <use x="50" xlink:href="#SimHei-31"/>
       <use x="100" xlink:href="#SimHei-30"/>
      </g>
     </g>
    </g>
    <g id="ytick_8">
     <g id="line2d_16">
      <g>
       <use style="stroke:#000000;stroke-width:0.8;" x="29.2" xlink:href="#m589e918deb" y="33.189004"/>
      </g>
     </g>
     <g id="text_16">
      <!-- 420 -->
      <g transform="translate(7.2 36.626504)scale(0.1 -0.1)">
       <use xlink:href="#SimHei-34"/>
       <use x="50" xlink:href="#SimHei-32"/>
       <use x="100" xlink:href="#SimHei-30"/>
      </g>
     </g>
    </g>
   </g>
   <g id="line2d_17">
    <path clip-path="url(#p9689d2cebc)" d="M 49.490909 180.386336 
L 50.054937 189.731492 
L 50.618965 200.38763 
L 50.900979 203.432223 
L 51.182993 204.531569 
L 51.465007 204.954455 
L 51.747021 204.066486 
L 52.029035 202.62878 
L 52.593063 198.527039 
L 52.875077 197.892776 
L 53.157091 198.907597 
L 53.439105 201.275599 
L 55.413204 231.467819 
L 55.695218 233.370609 
L 55.977232 234.258577 
L 56.259246 235.865463 
L 57.387302 247.451898 
L 57.669316 247.071211 
L 57.95133 247.071211 
L 58.515358 250.750195 
L 58.797372 251.130753 
L 59.3614 250.877048 
L 59.643414 249.735245 
L 60.489456 242.546713 
L 60.77147 240.643795 
L 61.335498 238.529498 
L 61.617512 238.106613 
L 61.899526 238.614023 
L 62.18154 238.529498 
L 62.463554 238.275793 
L 62.745568 237.599202 
L 63.027582 234.850642 
L 63.873624 222.122534 
L 64.719666 214.849348 
L 65.00168 213.369314 
L 65.283694 212.861904 
L 65.565709 212.100788 
L 66.129737 208.591112 
L 66.411751 206.307635 
L 66.693765 205.54652 
L 66.975779 206.05393 
L 67.821821 210.324851 
L 68.103835 209.479081 
L 68.949877 204.573897 
L 69.231891 204.193339 
L 69.513905 204.954455 
L 70.359947 208.717965 
L 70.641961 208.844817 
L 70.923975 208.844817 
L 71.205989 208.083572 
L 71.770017 206.05393 
L 72.052031 206.307635 
L 72.334045 207.195604 
L 72.616059 207.576162 
L 72.898073 206.772719 
L 73.180087 206.815046 
L 73.462101 206.561341 
L 74.026129 207.576162 
L 74.308143 207.068751 
L 74.590157 207.026424 
L 75.154185 210.324851 
L 75.436199 212.185313 
L 75.718213 212.439148 
L 76.000227 211.804755 
L 76.282241 210.451704 
L 77.410298 203.178517 
L 77.692312 203.685928 
L 79.102382 208.210554 
L 79.66641 212.354493 
L 79.948424 213.496296 
L 80.512452 213.707674 
L 81.07648 214.849348 
L 81.358494 214.341937 
L 81.640508 212.608199 
L 81.922522 211.847083 
L 82.204536 211.72023 
L 82.48655 212.227641 
L 82.768564 213.073411 
L 83.050578 214.384265 
L 83.332592 214.891675 
L 83.614606 216.033349 
L 83.89662 216.498561 
L 84.178634 215.652791 
L 85.024676 209.732786 
L 85.30669 209.056195 
L 85.870718 208.717965 
L 86.152732 208.929343 
L 86.434746 208.548785 
L 86.998774 207.407111 
L 87.280788 208.80249 
L 87.562802 211.21282 
L 88.126831 218.782038 
L 88.408845 218.274499 
L 89.818915 206.434488 
L 90.100929 205.673372 
L 90.382943 206.561341 
L 91.510999 218.020793 
L 91.793013 218.401351 
L 92.357041 217.767088 
L 92.639055 218.147646 
L 92.921069 219.289449 
L 93.203083 219.754532 
L 93.485097 219.881385 
L 94.049125 221.107713 
L 94.331139 222.925977 
L 94.895167 229.05749 
L 95.177181 230.452869 
L 95.459195 230.706574 
L 95.741209 230.579721 
L 96.023223 229.607227 
L 96.587251 225.928243 
L 96.869265 225.040274 
L 97.151279 224.659716 
L 97.433293 224.913421 
L 98.279335 227.070045 
L 98.561349 225.928243 
L 98.843363 224.194633 
L 99.97142 212.100788 
L 100.535448 206.180783 
L 101.099476 203.263043 
L 101.38149 202.670978 
L 101.663504 202.62878 
L 101.945518 202.163567 
L 102.227532 202.036715 
L 102.509546 200.007072 
L 102.79156 193.19897 
L 103.919616 156.11425 
L 104.20163 164.402257 
L 104.765658 217.090497 
L 105.047672 232.102082 
L 105.329686 239.163761 
L 105.6117 237.134119 
L 107.02177 203.897306 
L 107.585798 210.832262 
L 107.867812 210.832262 
L 108.149826 210.705409 
L 108.43184 208.717965 
L 108.713854 201.783009 
L 110.123924 155.860545 
L 110.405938 155.141627 
L 110.687952 152.223887 
L 111.251981 134.717577 
L 111.816009 115.096841 
L 112.098023 109.049983 
L 112.662051 102.41106 
L 113.508093 85.919571 
L 114.354135 79.534353 
L 114.636149 79.153795 
L 115.200177 75.601792 
L 116.328233 57.122859 
L 116.610247 54.839382 
L 117.174275 46.678227 
L 117.738303 39.616419 
L 118.020317 37.502123 
L 118.302331 37.502123 
L 119.148373 43.760488 
L 119.430387 43.506782 
L 119.994415 41.011928 
L 120.840457 36.318122 
L 121.122471 36.106743 
L 121.404485 35.726186 
L 121.686499 35.007268 
L 122.250528 32.850773 
L 122.532542 32.850773 
L 122.814556 33.189004 
L 123.09657 31.962675 
L 123.378584 29.340968 
L 123.942612 23.040405 
L 124.224626 22.025455 
L 124.50664 22.786699 
L 125.070668 25.662112 
L 125.91671 31.962675 
L 126.198724 32.089528 
L 126.480738 31.582117 
L 127.608794 26.676933 
L 127.890808 26.296375 
L 128.172822 26.803786 
L 128.73685 29.679328 
L 129.300878 33.485036 
L 129.864906 35.853038 
L 130.710948 41.392485 
L 130.992962 43.04157 
L 131.274976 42.661012 
L 131.55699 41.815371 
L 131.839004 41.899896 
L 132.403032 45.790259 
L 132.96706 53.824561 
L 133.531089 63.169717 
L 133.813103 65.284013 
L 134.095117 65.326341 
L 134.377131 64.31139 
L 134.659145 64.396045 
L 134.941159 67.948048 
L 135.223173 72.980085 
L 135.505187 76.024677 
L 135.787201 74.375464 
L 136.351229 68.962869 
L 136.633243 69.343427 
L 137.761299 84.90475 
L 138.043313 86.046423 
L 138.325327 86.300129 
L 138.607341 85.41216 
L 138.889355 85.41216 
L 139.171369 85.58134 
L 139.453383 85.031602 
L 140.017411 82.282913 
L 140.581439 77.124153 
L 141.145467 70.950313 
L 142.273523 65.537719 
L 142.555537 65.537719 
L 143.119565 69.301229 
L 144.247621 81.775503 
L 144.81165 88.456753 
L 145.375678 92.600692 
L 145.939706 96.110497 
L 146.503734 101.142534 
L 147.067762 106.808833 
L 148.195818 114.462578 
L 149.04186 127.190686 
L 149.323874 129.17813 
L 149.605888 128.205507 
L 150.169916 122.539207 
L 150.45193 124.907209 
L 151.015958 132.856985 
L 151.297972 133.575774 
L 151.579986 132.09587 
L 152.144014 124.907209 
L 152.990056 113.489955 
L 153.27207 111.33346 
L 154.118112 108.07736 
L 154.68214 105.413325 
L 154.964154 105.201947 
L 155.246168 107.316244 
L 155.528182 112.728839 
L 156.09221 133.702627 
L 156.656239 155.733692 
L 157.220267 169.561147 
L 158.066309 183.388601 
L 158.348323 186.771554 
L 158.912351 191.211525 
L 159.476379 199.415007 
L 159.758393 203.30537 
L 160.040407 205.292814 
L 160.322421 205.800225 
L 160.604435 206.05393 
L 161.168463 210.578556 
L 161.732491 217.38653 
L 162.014505 218.612858 
L 162.296519 217.259677 
L 162.578533 214.764823 
L 162.860547 213.623149 
L 163.142561 214.511117 
L 163.424575 216.879119 
L 163.988603 227.323751 
L 164.552631 237.768382 
L 164.834645 240.432417 
L 165.116659 241.658616 
L 165.398673 241.531763 
L 165.680687 240.136384 
L 166.244715 235.358053 
L 167.372771 221.784303 
L 167.654786 221.15004 
L 167.9368 220.896335 
L 168.218814 219.881385 
L 168.500828 219.416301 
L 168.782842 221.023188 
L 169.628884 230.072311 
L 169.910898 229.05749 
L 170.192912 225.167127 
L 171.038954 208.929343 
L 171.320968 205.54652 
L 171.602982 203.897306 
L 171.884996 203.770453 
L 172.16701 204.573897 
L 172.449024 204.024159 
L 172.731038 204.404717 
L 173.57708 209.817311 
L 173.859094 209.098523 
L 174.423122 206.180783 
L 174.705136 205.20816 
L 175.269164 205.20816 
L 175.551178 205.800225 
L 175.833192 205.039109 
L 176.115206 205.71557 
L 176.39722 214.63797 
L 176.961248 259.165055 
L 177.243262 265.550273 
L 177.525276 262.674731 
L 178.371318 247.451898 
L 179.499375 227.577456 
L 179.781389 225.843717 
L 180.063403 226.900866 
L 180.345417 229.438048 
L 180.627431 230.579721 
L 180.909445 228.042539 
L 181.755487 215.103053 
L 182.319515 224.786569 
L 182.601529 227.450603 
L 183.165557 236.499727 
L 183.447571 235.019822 
L 184.857641 195.228741 
L 185.139655 191.127 
L 185.421669 189.477787 
L 185.703683 189.816146 
L 185.985697 189.435588 
L 186.267711 187.321292 
L 186.831739 178.272039 
L 187.395767 166.432029 
L 187.677781 163.049077 
L 187.959795 161.146287 
L 188.241809 161.526845 
L 188.523823 162.922224 
L 189.651879 174.339478 
L 189.933893 175.269774 
L 190.215908 175.354299 
L 190.497922 176.115415 
L 190.779936 179.413713 
L 191.625978 196.032184 
L 191.907992 197.892776 
L 192.190006 198.273333 
L 192.47202 198.019628 
L 192.754034 197.258383 
L 193.600076 192.607034 
L 195.29216 177.003513 
L 195.574174 176.411448 
L 195.856188 177.384071 
L 196.420216 180.259483 
L 196.70223 179.752073 
L 197.548272 169.941705 
L 197.830286 168.588524 
L 198.1123 166.685734 
L 198.394314 165.543931 
L 198.676328 167.066292 
L 199.240356 175.396627 
L 199.804384 183.261749 
L 200.086398 183.642307 
L 200.368412 181.020599 
L 200.93244 169.814852 
L 201.496469 158.52458 
L 202.624525 146.177029 
L 203.188553 145.331259 
L 203.470567 145.204406 
L 203.752581 146.050177 
L 204.598623 149.348475 
L 205.162651 150.743854 
L 206.290707 158.270745 
L 207.136749 163.302782 
L 207.418763 164.317732 
L 207.700777 164.909668 
L 208.546819 161.696025 
L 208.828833 160.046811 
L 209.110847 159.539401 
L 209.392861 159.919959 
L 209.674875 159.666253 
L 209.956889 158.905137 
L 210.238903 156.875366 
L 211.084945 146.68444 
L 212.77703 115.604251 
L 213.059044 117.253465 
L 213.341058 121.143699 
L 213.905086 130.192951 
L 214.1871 132.349575 
L 214.469114 132.222722 
L 214.751128 131.58833 
L 215.59717 127.909474 
L 215.879184 128.290032 
L 216.161198 129.68554 
L 216.443212 130.319803 
L 216.725226 130.319803 
L 217.289254 127.655769 
L 217.571268 126.302588 
L 217.853282 126.048883 
L 218.135296 126.556293 
L 218.699324 125.160914 
L 218.981338 123.807733 
L 219.545366 119.156254 
L 219.82738 116.111662 
L 220.109394 114.58943 
L 220.391408 116.915105 
L 221.519464 141.906109 
L 221.801478 143.809027 
L 222.083492 143.174764 
L 222.64752 138.26958 
L 223.211548 133.491249 
L 223.493562 134.125512 
L 224.05759 141.271845 
L 224.339605 142.117616 
L 224.621619 141.01814 
L 224.903633 139.368927 
L 225.467661 133.829479 
L 225.749675 130.192951 
L 226.595717 126.048883 
L 226.877731 127.063833 
L 227.441759 134.252365 
L 228.287801 146.050177 
L 228.569815 148.671884 
L 228.851829 149.559853 
L 229.133843 148.291326 
L 229.697871 146.68444 
L 230.543913 138.26958 
L 231.107941 129.854591 
L 231.389955 130.827214 
L 231.953983 156.621661 
L 232.235997 159.919959 
L 232.518011 156.410283 
L 233.364053 141.779256 
L 233.646067 139.030696 
L 233.928081 138.523285 
L 234.210095 141.271845 
L 234.492109 142.794206 
L 234.774123 143.428469 
L 235.056137 142.075288 
L 235.620166 135.732398 
L 235.90218 132.138068 
L 236.466208 118.902549 
L 237.030236 99.408795 
L 237.31225 93.615642 
L 237.594264 91.120787 
L 237.876278 89.725279 
L 238.158292 87.568655 
L 239.004334 76.616613 
L 239.286348 77.377858 
L 239.850376 81.902355 
L 240.414404 87.864688 
L 240.978432 94.757316 
L 241.54246 99.6625 
L 242.106488 102.157355 
L 242.388502 101.819124 
L 242.670516 98.647679 
L 243.234544 89.978985 
L 243.516558 87.949342 
L 243.798572 87.695637 
L 244.080586 89.852132 
L 244.644614 102.664765 
L 244.926628 108.58477 
L 245.208642 111.33346 
L 245.490656 112.136903 
L 246.336698 107.950507 
L 246.618712 107.950507 
L 246.900727 108.965457 
L 247.464755 115.857957 
L 248.028783 123.046617 
L 248.874825 129.727738 
L 249.156839 130.319803 
L 249.438853 128.83977 
L 250.566909 120.805468 
L 250.848923 120.509435 
L 251.130937 120.42491 
L 251.976979 122.158649 
L 252.258993 121.524386 
L 252.541007 121.186026 
L 252.823021 121.524386 
L 253.105035 122.285501 
L 253.387049 122.158649 
L 253.669063 122.666059 
L 255.361147 134.886628 
L 255.925175 136.493514 
L 256.771217 138.058073 
L 257.335245 140.51073 
L 257.617259 140.679909 
L 257.899273 139.664959 
L 258.463302 135.35184 
L 258.745316 134.252365 
L 259.309344 133.998659 
L 259.591358 134.50607 
L 260.155386 132.730133 
L 260.4374 132.26492 
L 260.719414 130.996394 
L 261.283442 126.344915 
L 261.565456 125.076389 
L 262.129484 125.668325 
L 262.411498 123.554028 
L 262.693512 120.128877 
L 262.975526 119.156254 
L 263.25754 122.539207 
L 264.103582 138.396433 
L 264.949624 149.094769 
L 265.513652 156.663988 
L 265.795666 158.651432 
L 266.07768 159.539401 
L 266.359694 158.989663 
L 266.641708 159.03199 
L 266.923722 160.892582 
L 267.48775 166.051471 
L 267.769764 169.941705 
L 268.615806 189.054901 
L 268.89782 192.733886 
L 269.179834 193.495002 
L 269.461849 193.072117 
L 269.743863 193.495002 
L 270.307891 194.848183 
L 270.589905 196.285889 
L 270.871919 198.400186 
L 271.153933 199.54186 
L 271.435947 198.019628 
L 272.281989 186.306341 
L 272.564003 183.684634 
L 272.846017 182.162402 
L 273.128031 181.781844 
L 273.410045 179.540566 
L 274.256087 163.556487 
L 274.538101 161.78055 
L 274.820115 162.287961 
L 275.102129 164.52911 
L 275.384143 170.491443 
L 275.948171 197.258383 
L 276.230185 213.369314 
L 276.512199 222.799125 
L 276.794213 226.055095 
L 277.076227 222.925977 
L 277.640255 204.531569 
L 278.486297 174.339478 
L 278.768311 168.926884 
L 279.050325 165.924618 
L 279.332339 164.275405 
L 279.614353 163.556487 
L 279.896367 164.782815 
L 280.74241 170.745148 
L 281.024424 175.396627 
L 282.15248 199.161302 
L 282.434494 199.034449 
L 282.716508 197.892776 
L 282.998522 195.989857 
L 283.56255 189.477787 
L 283.844564 187.955555 
L 284.126578 185.164668 
L 284.97262 172.478887 
L 285.818662 160.807927 
L 286.664704 154.972447 
L 286.946718 155.60684 
L 287.228732 156.537135 
L 287.510746 156.11425 
L 288.074774 155.902743 
L 288.356788 155.141627 
L 288.920816 151.758804 
L 289.484844 145.458112 
L 290.330886 131.968888 
L 291.176928 116.619202 
L 291.458942 114.843135 
L 291.740956 114.504905 
L 292.02297 115.477399 
L 292.586999 121.312878 
L 293.433041 131.968888 
L 293.715055 133.110691 
L 293.997069 132.349575 
L 294.279083 129.981573 
L 295.125125 117.634023 
L 295.407139 115.731104 
L 295.689153 116.238644 
L 296.253181 121.397404 
L 296.535195 121.778091 
L 296.817209 120.678615 
L 297.099223 119.029402 
L 297.945265 108.58477 
L 298.227279 108.457918 
L 298.509293 112.221428 
L 299.073321 128.205507 
L 299.637349 141.271845 
L 299.919363 143.93588 
L 300.201377 145.415914 
L 300.765405 150.363296 
L 301.047419 151.462771 
L 301.329433 151.970182 
L 301.611447 154.253659 
L 302.457489 166.305176 
L 302.739503 168.165768 
L 303.021517 168.419473 
L 303.303531 169.053736 
L 303.86756 171.971476 
L 304.431588 178.525745 
L 305.841658 206.941899 
L 306.123672 209.056195 
L 306.405686 209.225375 
L 306.6877 207.829867 
L 306.969714 205.800225 
L 307.815756 196.243562 
L 308.09777 198.527039 
L 308.661798 205.419667 
L 309.225826 211.21282 
L 309.50784 212.566 
L 310.353882 220.642501 
L 310.91791 216.836792 
L 311.481938 211.466525 
L 311.763952 209.563606 
L 312.045966 209.309901 
L 312.609994 215.483611 
L 312.892008 215.229906 
L 313.174022 212.566 
L 313.456036 211.466525 
L 313.73805 211.085967 
L 314.020064 209.986491 
L 314.302078 209.436753 
L 314.584092 210.197869 
L 315.430135 219.670007 
L 315.712149 224.575191 
L 315.994163 224.575191 
L 316.840205 219.670007 
L 317.122219 216.498561 
L 318.250275 197.63907 
L 318.532289 198.400186 
L 319.096317 201.909862 
L 319.378331 204.700749 
L 320.224373 219.289449 
L 320.788401 221.911156 
L 321.070415 224.786569 
L 321.352429 226.055095 
L 321.634443 229.353522 
L 322.198471 243.64606 
L 322.480485 246.056389 
L 322.762499 243.307829 
L 323.608541 230.326016 
L 323.890555 230.241491 
L 324.172569 232.48264 
L 324.454583 233.751167 
L 325.018611 234.596937 
L 325.300625 238.740876 
L 325.864653 256.501021 
L 326.428682 280.899959 
L 326.710696 282.633698 
L 326.99271 286.777766 
L 327.274724 293.628067 
L 327.556738 296.122922 
L 327.838752 296.884038 
L 328.120766 298.025841 
L 328.40278 296.757185 
L 328.966808 317.477397 
L 329.248822 318.534545 
L 329.530836 316.039691 
L 330.094864 297.391578 
L 330.376878 300.013285 
L 330.658892 293.881773 
L 331.22292 273.626773 
L 331.786948 256.543348 
L 332.350976 228.592277 
L 332.915004 204.827602 
L 333.197018 202.29042 
L 333.479032 201.698484 
L 333.761046 200.683534 
L 334.889102 187.321292 
L 335.171116 186.686899 
L 335.45313 187.448144 
L 335.735144 189.097229 
L 336.017158 189.562441 
L 336.299172 188.674343 
L 336.581186 187.194439 
L 336.8632 186.940605 
L 337.145214 187.067586 
L 337.427229 186.686899 
L 337.709243 185.418373 
L 338.555285 178.272039 
L 338.837299 178.018334 
L 339.119313 179.413713 
L 339.401327 183.050371 
L 341.657439 227.323751 
L 341.939453 229.438048 
L 342.221467 228.465425 
L 342.785495 223.771748 
L 343.631537 212.354493 
L 343.913551 211.085967 
L 344.195565 210.959114 
L 344.477579 212.608199 
L 345.041607 217.767088 
L 345.605635 222.418567 
L 346.169663 225.167127 
L 346.451677 227.958014 
L 347.015705 234.596937 
L 347.297719 234.766117 
L 347.579733 234.766117 
L 348.143761 235.907791 
L 348.425775 236.161496 
L 348.70779 234.38543 
L 349.271818 232.48264 
L 349.553832 232.736345 
L 350.681888 236.161496 
L 350.963902 236.034643 
L 351.245916 234.892969 
L 351.52793 235.907791 
L 352.091958 246.5638 
L 352.373972 248.678097 
L 352.655986 248.593571 
L 352.938 248.847277 
L 353.220014 248.213013 
L 353.784042 244.534158 
L 354.066056 240.8975 
L 354.630084 230.452869 
L 355.194112 260.010826 
L 355.476126 262.674731 
L 356.040154 256.627873 
L 356.322168 251.215279 
L 357.16821 225.040274 
L 358.014252 205.165962 
L 358.860294 181.52801 
L 359.142308 181.274305 
L 359.424322 184.276699 
L 359.706336 189.097229 
L 360.270365 203.009338 
L 360.552379 206.307635 
L 360.834393 207.407111 
L 361.116407 206.941899 
L 361.398421 205.292814 
L 361.680435 201.656157 
L 361.962449 200.133925 
L 362.244463 202.670978 
L 363.090505 221.023188 
L 363.654533 233.370609 
L 363.936547 234.343232 
L 364.218561 230.706574 
L 364.782589 219.373974 
L 365.064603 217.005972 
L 365.346617 216.625414 
L 365.628631 215.103053 
L 366.192659 206.941899 
L 366.474673 207.195604 
L 367.038701 221.657451 
L 367.602729 226.562635 
L 368.730785 253.118197 
L 369.012799 251.849542 
L 369.294813 245.675831 
L 369.858841 225.547685 
L 370.140855 223.518042 
L 370.422869 225.674537 
L 370.986897 223.05283 
L 371.268911 223.687093 
L 371.550926 223.687093 
L 371.83294 222.418567 
L 372.114954 222.038009 
L 372.396968 223.433388 
L 373.525024 198.273333 
L 374.371066 173.705215 
L 375.499122 144.316438 
L 376.06315 133.491249 
L 376.627178 126.048883 
L 377.191206 123.046617 
L 377.755234 121.524386 
L 378.037248 122.412354 
L 378.319262 126.175735 
L 379.447318 156.621661 
L 380.29336 167.954261 
L 380.575374 172.859445 
L 381.421416 199.288155 
L 381.70343 198.907597 
L 382.267458 192.480181 
L 382.549472 190.704115 
L 382.831487 193.748707 
L 383.677529 216.371709 
L 383.959543 220.896335 
L 384.523571 225.167127 
L 384.805585 225.420832 
L 385.087599 226.900866 
L 385.369613 229.818605 
L 385.651627 231.340837 
L 385.933641 230.326016 
L 386.215655 228.592277 
L 386.497669 227.704309 
L 386.779683 229.5649 
L 387.343711 237.768382 
L 387.625725 244.787863 
L 387.907739 246.436947 
L 388.189753 250.369508 
L 389.035795 234.089526 
L 389.599823 223.264337 
L 389.881837 219.543154 
L 390.163851 218.020793 
L 390.445865 221.15004 
L 391.009893 244.703208 
L 391.291907 250.623343 
L 391.573921 251.468984 
L 391.855935 251.215279 
L 392.419963 245.675831 
L 392.701977 241.912321 
L 393.548019 237.895235 
L 394.95809 223.687093 
L 395.240104 223.306535 
L 395.522118 224.279158 
L 395.804132 224.406011 
L 396.650174 228.338572 
L 397.214202 229.691753 
L 397.496216 231.679197 
L 397.77823 232.102082 
L 398.624272 218.528204 
L 398.906286 217.344203 
L 399.470314 228.338572 
L 399.752328 225.040274 
L 401.444412 196.243562 
L 401.726426 194.340643 
L 402.00844 193.579527 
L 402.290454 194.213791 
L 402.572468 194.129265 
L 402.854482 193.621855 
L 403.700524 188.20926 
L 403.982538 185.545225 
L 404.264552 185.333847 
L 404.546566 187.913228 
L 405.674623 208.083572 
L 405.956637 207.068751 
L 407.084693 195.482446 
L 407.366707 196.243562 
L 408.212749 227.323751 
L 408.494763 225.082601 
L 408.776777 218.908891 
L 409.904833 186.13729 
L 411.032889 174.466331 
L 411.314903 172.690265 
L 412.160945 182.162402 
L 412.442959 183.557781 
L 412.724973 182.289255 
L 413.289001 175.100594 
L 413.853029 165.586259 
L 414.417057 155.522185 
L 414.699071 152.097035 
L 414.981085 152.604445 
L 415.263099 155.77589 
L 415.827127 168.842229 
L 416.391155 184.78411 
L 416.673169 188.801196 
L 416.955184 190.95782 
L 417.237198 192.099494 
L 417.519212 193.70638 
L 418.08324 201.656157 
L 418.365254 204.193339 
L 418.647268 204.827602 
L 419.211296 204.658422 
L 419.49331 205.927078 
L 420.057338 210.705409 
L 420.339352 211.72023 
L 420.621366 214.088232 
L 421.467408 249.693047 
L 422.031436 258.91135 
L 422.31345 258.995875 
L 422.877478 251.976395 
L 423.441506 238.487171 
L 424.569562 204.066486 
L 424.851576 198.992122 
L 425.13359 197.892776 
L 425.415604 207.829867 
L 425.979632 253.371903 
L 426.261646 262.167321 
L 426.54366 262.040468 
L 426.825674 257.008431 
L 428.517759 210.493902 
L 428.799773 208.591112 
L 429.081787 208.29508 
L 429.645815 212.566 
L 429.927829 217.259677 
L 430.491857 230.072311 
L 430.773871 232.186608 
L 431.055885 230.326016 
L 431.901927 216.752267 
L 432.183941 215.610593 
L 433.029983 218.147646 
L 433.311997 218.274499 
L 433.594011 218.020793 
L 433.876025 218.020793 
L 434.158039 217.640235 
L 434.440053 216.160202 
L 435.004081 207.576162 
L 435.568109 198.357859 
L 435.850123 196.159037 
L 436.132137 195.736151 
L 436.696165 198.146481 
L 436.978179 198.273333 
L 437.542207 194.763528 
L 438.106235 189.942999 
L 438.388249 188.420638 
L 438.670263 187.574997 
L 438.952277 187.786375 
L 439.234291 189.181883 
L 440.644362 199.753367 
L 440.926376 200.38763 
L 441.20839 200.260778 
L 442.054432 198.357859 
L 442.336446 197.385236 
L 442.61846 197.258383 
L 442.900474 197.258383 
L 443.182488 197.512089 
L 443.746516 198.527039 
L 444.02853 198.992122 
L 444.592558 201.402451 
L 445.156586 203.432223 
L 445.4386 203.559075 
L 446.002628 202.036715 
L 446.284642 200.38763 
L 446.566656 199.415007 
L 446.84867 199.668713 
L 447.130684 202.121369 
L 447.694712 217.597908 
L 448.540754 266.311389 
L 448.822768 273.119363 
L 449.104782 284.536617 
L 449.66881 296.50348 
L 449.950824 293.628067 
L 450.232838 292.866951 
L 451.078881 261.406205 
L 452.206937 208.464259 
L 452.488951 201.783009 
L 452.770965 199.118975 
L 453.052979 198.400186 
L 453.334993 201.021893 
L 453.617007 201.275599 
L 455.027077 191.465231 
L 455.309091 194.002413 
L 455.309091 194.002413 
" style="fill:none;stroke:#1f77b4;stroke-linecap:square;stroke-width:1.5;"/>
   </g>
   <g id="line2d_18">
    <path clip-path="url(#p9689d2cebc)" d="M 49.490909 216.885185 
L 49.772923 215.578848 
L 50.054937 215.089116 
L 50.618965 214.688943 
L 50.900979 222.77409 
L 51.182993 214.022935 
L 51.747021 210.884783 
L 52.029035 203.152192 
L 52.311049 202.849707 
L 52.593063 202.216476 
L 52.875077 203.611855 
L 53.721119 210.513775 
L 54.003133 218.368057 
L 54.849176 222.567615 
L 55.13119 222.031685 
L 55.413204 215.621046 
L 55.977232 213.807685 
L 56.259246 214.148239 
L 56.54126 220.451383 
L 57.387302 223.758327 
L 59.079386 241.752433 
L 59.925428 247.127604 
L 60.207442 244.050363 
L 60.489456 246.292544 
L 60.77147 249.97282 
L 61.053484 247.297558 
L 61.335498 251.211278 
L 61.899526 250.769423 
L 63.027582 245.6788 
L 63.59161 244.397239 
L 64.437652 239.384947 
L 64.719666 229.2739 
L 65.00168 229.69485 
L 65.283694 230.805682 
L 65.565709 247.514614 
L 65.847723 245.723837 
L 66.129737 245.896243 
L 66.411751 249.969206 
L 66.693765 247.216646 
L 66.975779 248.853729 
L 67.257793 244.219801 
L 67.539807 243.781817 
L 67.821821 242.937724 
L 68.103835 233.705226 
L 68.385849 239.104142 
L 68.667863 218.265981 
L 68.949877 216.168848 
L 69.231891 229.179697 
L 69.513905 226.479787 
L 69.795919 230.249233 
L 70.077933 225.029305 
L 70.359947 212.042846 
L 70.641961 217.159279 
L 70.923975 217.134889 
L 71.205989 217.882585 
L 71.488003 219.192148 
L 72.052031 212.03291 
L 72.334045 219.10517 
L 72.616059 211.806949 
L 72.898073 211.38187 
L 73.462101 224.740241 
L 73.744115 224.552608 
L 74.026129 218.995481 
L 74.308143 217.629137 
L 74.590157 207.538867 
L 74.872171 220.143994 
L 75.154185 218.094221 
L 75.436199 210.150896 
L 75.718213 218.550787 
L 76.000227 218.9889 
L 76.282241 216.309121 
L 76.564255 210.745542 
L 77.128284 225.057566 
L 77.410298 220.147737 
L 77.692312 228.023957 
L 77.974326 228.396901 
L 78.25634 225.290366 
L 78.538354 225.224552 
L 78.820368 225.369472 
L 79.102382 221.124231 
L 79.384396 213.421707 
L 79.66641 215.119055 
L 79.948424 205.849263 
L 80.512452 203.754065 
L 80.794466 202.997982 
L 81.07648 217.859227 
L 81.358494 217.379949 
L 81.640508 206.300022 
L 81.922522 214.676555 
L 82.204536 219.262091 
L 82.48655 209.137108 
L 83.050578 209.606449 
L 83.332592 214.324516 
L 83.614606 223.249626 
L 83.89662 224.078104 
L 84.178634 216.723748 
L 84.460648 213.566626 
L 84.742662 213.255625 
L 85.30669 217.82903 
L 85.870718 221.393293 
L 86.152732 221.378452 
L 86.434746 220.290075 
L 86.71676 220.40983 
L 86.998774 219.143368 
L 87.280788 218.475553 
L 87.562802 218.331279 
L 88.126831 217.284712 
L 88.408845 224.956136 
L 88.690859 216.453137 
L 89.536901 214.852058 
L 89.818915 209.125752 
L 90.100929 205.995343 
L 90.382943 205.54239 
L 90.664957 205.591428 
L 90.946971 223.386157 
L 91.228985 214.358197 
L 91.510999 225.694669 
L 91.793013 223.173617 
L 92.075027 223.648895 
L 92.357041 224.417625 
L 92.921069 208.503619 
L 93.485097 206.103097 
L 93.767111 217.572486 
L 94.049125 222.442569 
L 94.613153 225.31824 
L 94.895167 226.16943 
L 95.177181 226.569861 
L 95.459195 229.565287 
L 95.741209 230.056954 
L 96.023223 230.783099 
L 96.305237 230.31337 
L 96.587251 230.815618 
L 96.869265 230.836266 
L 97.151279 228.468909 
L 97.433293 229.490053 
L 97.715307 233.992354 
L 97.997321 234.987819 
L 98.279335 235.009885 
L 98.561349 229.660007 
L 98.843363 236.549151 
L 99.125377 223.759488 
L 99.407391 225.004528 
L 99.689406 225.494001 
L 99.97142 228.707258 
L 100.253434 234.851287 
L 100.817462 233.187492 
L 101.099476 233.149423 
L 101.38149 232.811838 
L 101.663504 236.576122 
L 102.227532 224.549898 
L 102.509546 211.021315 
L 102.79156 210.349628 
L 103.073574 209.353518 
L 103.355588 206.759298 
L 103.637602 215.034013 
L 104.20163 212.796606 
L 104.483644 212.574259 
L 104.765658 212.208155 
L 105.047672 211.495044 
L 105.6117 204.552991 
L 105.893714 198.561236 
L 106.175728 199.637096 
L 106.457742 192.370749 
L 106.739756 176.798716 
L 107.02177 175.659365 
L 107.585798 170.468343 
L 107.867812 166.164645 
L 108.149826 168.917592 
L 108.43184 147.139974 
L 108.713854 147.061256 
L 108.995868 144.141193 
L 109.277882 144.638409 
L 109.559896 158.418374 
L 109.84191 158.396436 
L 110.687952 149.851369 
L 110.969967 156.632888 
L 111.251981 156.470935 
L 111.533995 158.952627 
L 111.816009 157.961679 
L 112.098023 149.96209 
L 112.380037 149.575984 
L 112.662051 144.297339 
L 112.944065 142.423843 
L 113.226079 141.646596 
L 113.508093 139.508297 
L 113.790107 133.01881 
L 114.072121 138.827319 
L 114.354135 134.677831 
L 114.636149 136.260327 
L 114.918163 128.231445 
L 115.200177 129.477517 
L 115.482191 122.691482 
L 115.764205 119.819811 
L 116.046219 109.847619 
L 116.328233 104.368565 
L 116.610247 102.123932 
L 116.892261 101.050265 
L 117.174275 99.044368 
L 117.456289 104.952242 
L 117.738303 95.592892 
L 118.020317 93.200629 
L 118.302331 93.27896 
L 118.584345 102.166388 
L 118.866359 102.131416 
L 119.148373 110.900896 
L 119.430387 100.632026 
L 119.712401 100.245274 
L 119.994415 97.405994 
L 120.276429 96.174246 
L 120.558443 96.72579 
L 120.840457 96.894841 
L 121.122471 96.799476 
L 121.404485 96.04649 
L 121.686499 111.768217 
L 121.968513 112.584436 
L 122.814556 91.359781 
L 123.09657 92.548686 
L 123.378584 97.611694 
L 123.660598 96.865677 
L 124.224626 94.177768 
L 124.50664 86.64778 
L 124.788654 86.170824 
L 125.070668 88.699102 
L 125.352682 88.437912 
L 125.634696 87.562719 
L 125.91671 91.776085 
L 126.198724 83.952387 
L 126.480738 89.460089 
L 126.762752 100.069383 
L 127.044766 100.301538 
L 127.32678 104.048788 
L 127.608794 88.444493 
L 127.890808 88.346676 
L 128.172822 89.732377 
L 128.454836 103.732108 
L 129.018864 107.498716 
L 129.300878 107.865079 
L 129.582892 109.074244 
L 129.864906 109.332853 
L 130.14692 90.186749 
L 130.428934 102.009855 
L 130.992962 97.751967 
L 131.55699 100.524659 
L 131.839004 104.321851 
L 132.121018 106.128114 
L 132.685046 104.190094 
L 132.96706 101.612134 
L 133.249074 100.959675 
L 133.531089 82.263298 
L 133.813103 87.003303 
L 134.095117 89.1176 
L 134.377131 109.632757 
L 134.659145 112.915569 
L 135.505187 116.832257 
L 135.787201 120.745719 
L 136.069215 121.708019 
L 136.351229 125.212791 
L 136.633243 126.65153 
L 137.197271 131.845778 
L 137.479285 128.921327 
L 137.761299 133.992336 
L 138.325327 130.234375 
L 138.607341 131.274747 
L 138.889355 134.604919 
L 139.171369 135.718203 
L 139.453383 136.262521 
L 139.735397 137.104678 
L 140.017411 136.44538 
L 140.299425 128.342038 
L 140.581439 131.862037 
L 141.145467 135.2788 
L 141.427481 135.796921 
L 141.991509 132.217173 
L 142.273523 120.145008 
L 142.555537 117.304438 
L 142.837551 115.96171 
L 143.119565 125.887833 
L 143.965607 122.251562 
L 144.247621 123.90155 
L 144.529635 120.183335 
L 144.81165 114.533166 
L 145.093664 112.170197 
L 145.375678 110.749783 
L 145.657692 110.54718 
L 145.939706 111.414759 
L 146.22172 114.033369 
L 146.785748 121.6875 
L 147.067762 115.952935 
L 147.349776 127.903151 
L 147.63179 129.789165 
L 147.913804 136.55765 
L 148.195818 138.28984 
L 148.477832 141.327981 
L 148.759846 142.209626 
L 149.04186 147.681324 
L 149.605888 145.508053 
L 149.887902 147.359224 
L 150.169916 148.360753 
L 150.45193 147.84289 
L 150.733944 151.734156 
L 151.015958 158.093435 
L 151.297972 160.088751 
L 152.144014 170.082753 
L 152.426028 172.104781 
L 152.708042 172.186984 
L 152.990056 167.203468 
L 153.27207 150.074748 
L 153.554084 146.826004 
L 153.836098 166.585981 
L 154.400126 164.899086 
L 154.68214 151.615562 
L 154.964154 149.335957 
L 155.246168 159.908861 
L 155.528182 152.975325 
L 155.810196 153.841613 
L 156.09221 153.021265 
L 156.374225 149.987771 
L 156.656239 150.906581 
L 156.938253 137.079643 
L 157.220267 134.96483 
L 157.784295 126.306588 
L 158.066309 124.646148 
L 158.348323 118.314226 
L 158.630337 118.615421 
L 158.912351 111.705629 
L 159.194365 112.826398 
L 159.758393 117.646669 
L 160.322421 132.220528 
L 160.604435 143.626169 
L 161.450477 188.345404 
L 161.732491 196.379061 
L 162.014505 197.401109 
L 162.296519 195.633172 
L 162.578533 197.447178 
L 162.860547 197.152565 
L 163.424575 213.24001 
L 163.706589 207.267225 
L 163.988603 215.734994 
L 164.270617 216.692131 
L 164.552631 219.875965 
L 164.834645 214.440013 
L 165.116659 215.094794 
L 165.398673 224.723594 
L 165.680687 225.233586 
L 165.962701 221.351224 
L 166.244715 240.284013 
L 166.526729 224.934198 
L 166.808743 230.644245 
L 167.090757 249.099562 
L 167.9368 256.293514 
L 168.218814 261.644812 
L 168.500828 247.954017 
L 168.782842 262.723769 
L 169.064856 263.147041 
L 169.628884 260.97648 
L 169.910898 259.768735 
L 170.192912 255.873855 
L 170.474926 244.309617 
L 170.75694 243.283311 
L 171.038954 254.767411 
L 171.320968 240.687025 
L 171.602982 237.842068 
L 171.884996 249.006907 
L 172.16701 247.662759 
L 172.449024 235.227587 
L 172.731038 249.000197 
L 173.013052 249.11337 
L 173.295066 248.281795 
L 173.859094 244.706693 
L 174.141108 244.913296 
L 174.423122 243.540887 
L 174.705136 233.305182 
L 174.98715 232.671048 
L 175.269164 232.737378 
L 175.551178 224.341746 
L 175.833192 224.51841 
L 176.115206 233.951963 
L 176.679234 238.580342 
L 176.961248 238.309216 
L 177.525276 243.926736 
L 177.80729 244.998338 
L 178.089304 227.619138 
L 178.371318 226.033286 
L 178.653332 232.385468 
L 178.935347 222.516384 
L 179.217361 243.148586 
L 179.499375 240.88266 
L 179.781389 235.932051 
L 180.063403 249.019425 
L 180.345417 238.562534 
L 180.627431 251.613774 
L 180.909445 256.45508 
L 181.191459 255.262691 
L 181.473473 258.425361 
L 181.755487 259.984758 
L 182.319515 253.011089 
L 182.601529 252.580848 
L 182.883543 253.225177 
L 183.165557 252.449608 
L 183.447571 249.704403 
L 184.011599 236.617159 
L 184.857641 216.779108 
L 185.139655 215.228486 
L 185.421669 215.791645 
L 185.703683 219.448305 
L 185.985697 210.847489 
L 186.267711 213.014953 
L 186.549725 206.096515 
L 186.831739 209.920032 
L 187.113753 201.182169 
L 187.395767 202.811122 
L 187.677781 197.633005 
L 187.959795 200.043334 
L 188.241809 197.395301 
L 188.523823 199.32532 
L 188.805837 207.211735 
L 189.087851 206.283891 
L 189.369865 201.280632 
L 189.651879 190.570939 
L 189.933893 186.922022 
L 190.215908 173.766254 
L 190.497922 169.933575 
L 190.779936 172.331 
L 191.06195 157.337739 
L 191.343964 173.082695 
L 191.625978 162.105102 
L 191.907992 180.36956 
L 192.190006 177.774565 
L 192.47202 178.949146 
L 192.754034 181.239978 
L 193.318062 196.104837 
L 193.600076 192.872095 
L 193.88209 195.876425 
L 194.164104 186.997901 
L 194.446118 199.903448 
L 194.728132 201.207333 
L 195.010146 203.82775 
L 195.29216 202.820543 
L 195.574174 203.014241 
L 195.856188 206.158329 
L 196.138202 206.236015 
L 196.420216 204.351033 
L 196.70223 200.334205 
L 196.984244 199.188015 
L 197.266258 198.709123 
L 197.548272 203.779616 
L 198.1123 200.049141 
L 198.394314 197.992916 
L 198.676328 199.075357 
L 198.958342 199.149301 
L 199.240356 193.839298 
L 199.52237 197.192957 
L 199.804384 196.322151 
L 200.086398 192.289708 
L 200.368412 190.508222 
L 200.650426 186.99261 
L 200.93244 180.855033 
L 201.214454 184.112036 
L 201.496469 184.946063 
L 201.778483 185.4296 
L 202.060497 184.731459 
L 202.342511 188.270815 
L 202.624525 187.256897 
L 202.906539 188.287591 
L 203.188553 186.033279 
L 203.470567 185.967853 
L 203.752581 190.253097 
L 204.034595 184.121714 
L 204.316609 182.599224 
L 204.598623 181.840948 
L 204.880637 178.192289 
L 205.162651 176.045859 
L 205.444665 181.703513 
L 205.726679 181.764552 
L 206.008693 182.221764 
L 206.290707 182.939133 
L 206.572721 171.431288 
L 206.854735 171.221974 
L 207.136749 172.733495 
L 207.418763 192.494376 
L 207.700777 193.375118 
L 207.982791 187.551768 
L 208.264805 187.055198 
L 208.546819 194.800178 
L 208.828833 196.471845 
L 209.110847 196.923379 
L 209.392861 198.147255 
L 209.674875 198.435674 
L 209.956889 196.476749 
L 210.238903 198.864882 
L 210.520917 194.528664 
L 210.802931 192.82809 
L 211.084945 184.198626 
L 211.366959 182.34952 
L 211.648973 183.649275 
L 211.930987 178.396053 
L 212.495015 176.413513 
L 213.623072 166.300402 
L 214.469114 157.130749 
L 214.751128 147.975937 
L 215.033142 155.101881 
L 215.315156 155.964943 
L 215.879184 162.426815 
L 216.161198 163.626817 
L 216.443212 173.762254 
L 217.00724 180.827546 
L 217.289254 157.263796 
L 217.571268 148.641687 
L 218.135296 141.304623 
L 218.41731 141.294558 
L 218.981338 152.143233 
L 219.263352 152.153686 
L 219.545366 146.739414 
L 220.673422 143.050492 
L 220.955436 145.314225 
L 221.519464 141.54465 
L 221.801478 136.765028 
L 222.083492 134.319082 
L 222.365506 134.06486 
L 222.64752 133.298453 
L 222.929534 132.916347 
L 223.211548 134.11635 
L 223.493562 131.288168 
L 223.775576 138.500702 
L 224.339605 140.860316 
L 224.621619 139.461969 
L 224.903633 141.014656 
L 225.185647 141.434186 
L 225.467661 137.811852 
L 226.031689 137.104678 
L 226.313703 135.041484 
L 226.595717 134.012725 
L 226.877731 144.159647 
L 227.441759 146.711282 
L 228.005787 147.729716 
L 228.287801 134.809587 
L 228.569815 133.277806 
L 228.851829 133.219993 
L 229.133843 144.276821 
L 229.415857 132.617733 
L 230.261899 138.316295 
L 230.543913 152.062192 
L 230.825927 143.00481 
L 231.389955 146.730122 
L 231.671969 162.059936 
L 231.953983 165.938555 
L 232.235997 156.01553 
L 232.518011 154.629184 
L 232.800025 155.736918 
L 233.364053 135.509922 
L 233.646067 129.597918 
L 233.928081 127.65293 
L 234.210095 133.223219 
L 234.492109 113.956328 
L 234.774123 113.844703 
L 235.056137 116.333622 
L 235.338151 121.983017 
L 235.620166 120.844827 
L 235.90218 110.998455 
L 236.184194 115.915382 
L 236.466208 113.147981 
L 236.748222 113.484793 
L 237.030236 115.195432 
L 237.31225 111.018586 
L 237.876278 120.289024 
L 238.158292 120.673195 
L 238.440306 119.814004 
L 238.72232 117.620473 
L 239.004334 99.457445 
L 239.286348 112.584178 
L 240.13239 102.380992 
L 240.414404 102.0998 
L 240.696418 103.123009 
L 241.260446 106.48854 
L 241.54246 99.94537 
L 241.824474 98.850411 
L 242.106488 92.599272 
L 242.388502 92.013789 
L 242.670516 94.18293 
L 243.234544 115.838987 
L 243.516558 110.646545 
L 243.798572 114.033369 
L 244.080586 120.301154 
L 244.3626 118.52083 
L 244.644614 120.87696 
L 244.926628 121.73628 
L 245.208642 122.155552 
L 245.490656 121.795383 
L 246.054684 117.255142 
L 246.336698 117.24198 
L 246.618712 112.278209 
L 246.900727 102.47055 
L 247.182741 104.569233 
L 247.464755 104.037561 
L 247.746769 109.452995 
L 248.028783 117.770683 
L 248.310797 129.523716 
L 248.592811 127.800817 
L 248.874825 131.266617 
L 249.156839 131.922044 
L 249.438853 130.152817 
L 250.002881 129.611726 
L 250.284895 130.840248 
L 250.566909 137.080933 
L 250.848923 167.902513 
L 251.130937 170.273612 
L 251.412951 151.560072 
L 251.694965 151.708992 
L 251.976979 152.409972 
L 252.258993 154.311342 
L 252.541007 152.266602 
L 252.823021 153.284778 
L 253.105035 152.784336 
L 253.387049 140.044356 
L 253.669063 149.434032 
L 253.951077 148.388111 
L 254.233091 158.644593 
L 254.515105 159.105805 
L 254.797119 156.270396 
L 255.079133 148.187573 
L 255.361147 147.390453 
L 255.643161 147.82392 
L 255.925175 159.267242 
L 256.207189 158.736603 
L 256.489203 146.771159 
L 256.771217 139.756453 
L 257.053231 140.928453 
L 257.335245 137.031509 
L 257.617259 153.706244 
L 257.899273 156.274913 
L 258.181288 157.628481 
L 258.463302 156.826199 
L 258.745316 159.922927 
L 259.309344 162.200596 
L 259.591358 162.763755 
L 259.873372 165.012647 
L 260.155386 164.684353 
L 260.4374 163.731474 
L 260.719414 153.868455 
L 261.001428 154.627248 
L 261.283442 164.969675 
L 261.565456 157.68823 
L 261.84747 159.414355 
L 262.129484 158.308298 
L 262.411498 162.195047 
L 262.693512 168.659112 
L 262.975526 171.750291 
L 263.25754 189.465914 
L 263.539554 190.869423 
L 263.821568 190.994598 
L 264.103582 188.744545 
L 264.385596 183.961051 
L 264.66761 174.357803 
L 264.949624 169.027411 
L 265.231638 167.761336 
L 265.513652 168.245002 
L 265.795666 156.902982 
L 266.07768 155.838607 
L 266.359694 149.523978 
L 266.923722 157.755979 
L 267.205736 162.651226 
L 267.48775 181.161776 
L 267.769764 183.09515 
L 268.051778 170.673656 
L 268.333792 190.583456 
L 268.615806 185.167636 
L 268.89782 186.702256 
L 269.179834 174.960579 
L 269.461849 177.062616 
L 269.743863 176.784908 
L 270.025877 182.294417 
L 270.307891 182.963264 
L 270.589905 178.498774 
L 270.871919 179.517337 
L 271.999975 186.296921 
L 272.281989 192.018195 
L 272.564003 189.320608 
L 272.846017 190.224578 
L 273.128031 196.034636 
L 273.410045 195.961983 
L 273.692059 186.944992 
L 274.256087 199.583026 
L 274.538101 201.326314 
L 274.820115 193.505197 
L 275.384143 186.673995 
L 275.666157 185.748474 
L 276.230185 210.571588 
L 276.512199 200.103857 
L 276.794213 207.097271 
L 277.076227 208.447354 
L 277.358241 210.7689 
L 277.640255 197.537253 
L 277.922269 198.487292 
L 278.486297 189.449525 
L 278.768311 191.858435 
L 279.050325 192.93765 
L 279.332339 198.00853 
L 279.614353 209.978877 
L 279.896367 212.851451 
L 280.178381 211.090096 
L 280.460395 205.406246 
L 280.74241 204.864638 
L 281.024424 205.788095 
L 281.306438 204.265863 
L 281.588452 198.095766 
L 281.870466 201.988193 
L 282.15248 193.359374 
L 282.434494 188.97928 
L 282.716508 187.275351 
L 282.998522 194.07313 
L 283.280536 183.808131 
L 283.56255 191.891342 
L 283.844564 190.706954 
L 284.126578 188.758482 
L 284.408592 197.080815 
L 284.690606 200.855553 
L 284.97262 200.072241 
L 285.254634 198.694412 
L 285.536648 200.828195 
L 285.818662 205.947725 
L 286.100676 207.016229 
L 286.38269 204.941808 
L 286.664704 205.1879 
L 286.946718 203.280077 
L 287.228732 196.151939 
L 287.510746 192.377331 
L 287.79276 191.287018 
L 288.074774 189.446686 
L 288.356788 180.765991 
L 288.638802 180.856839 
L 288.920816 180.429696 
L 289.20283 182.255574 
L 289.484844 181.507104 
L 289.766858 178.376051 
L 290.048872 178.946694 
L 290.330886 178.969664 
L 290.6129 177.92284 
L 290.894914 179.724715 
L 291.176928 179.068643 
L 291.458942 172.472563 
L 291.740956 181.456002 
L 292.02297 169.626702 
L 292.304985 172.56367 
L 292.586999 170.891357 
L 293.151027 163.790835 
L 293.433041 164.879729 
L 293.715055 162.464367 
L 293.997069 151.545619 
L 294.561097 146.08089 
L 294.843111 145.1173 
L 295.125125 143.637783 
L 295.407139 145.380297 
L 295.971167 143.237223 
L 296.253181 135.162658 
L 296.535195 139.589596 
L 297.099223 141.81113 
L 297.663251 142.734974 
L 297.945265 147.056997 
L 298.791307 166.594885 
L 299.355335 173.515517 
L 299.637349 173.60843 
L 299.919363 172.608062 
L 300.201377 167.405168 
L 300.483391 166.319113 
L 300.765405 169.673804 
L 301.047419 171.602145 
L 301.329433 169.923896 
L 301.611447 169.831112 
L 301.893461 169.359318 
L 302.175475 170.160568 
L 302.457489 169.279955 
L 302.739503 169.033605 
L 303.021517 166.209553 
L 303.303531 170.413499 
L 303.585546 171.714416 
L 304.431588 184.243534 
L 304.713602 184.144168 
L 304.995616 186.060121 
L 305.27763 182.510311 
L 305.559644 192.416819 
L 305.841658 191.597632 
L 306.405686 189.447203 
L 306.6877 196.876535 
L 306.969714 196.29531 
L 307.251728 197.072943 
L 307.533742 191.042862 
L 308.09777 198.788745 
L 308.379784 195.393404 
L 308.661798 203.770066 
L 308.943812 203.65315 
L 309.225826 200.458606 
L 309.50784 201.99129 
L 309.789854 201.616281 
L 310.071868 202.790346 
L 310.353882 203.170904 
L 310.635896 202.965075 
L 310.91791 206.969902 
L 311.199924 207.344653 
L 311.763952 209.429914 
L 312.045966 201.840693 
L 312.32798 214.470984 
L 312.609994 206.027347 
L 312.892008 207.291485 
L 313.174022 205.919077 
L 313.456036 209.990492 
L 313.73805 210.003138 
L 314.302078 211.393485 
L 314.866107 211.316831 
L 315.148121 211.104162 
L 315.430135 209.737432 
L 315.712149 207.615005 
L 315.994163 210.623723 
L 316.276177 209.934873 
L 316.840205 211.088548 
L 317.122219 207.835029 
L 317.404233 208.330567 
L 317.686247 209.437915 
L 317.968261 209.778597 
L 318.250275 211.476332 
L 318.814303 209.955391 
L 319.096317 211.052931 
L 319.660345 209.090135 
L 319.942359 209.893062 
L 320.224373 210.078114 
L 320.788401 209.493405 
L 321.070415 209.864671 
L 321.352429 207.374462 
L 321.634443 205.990052 
L 321.916457 200.499901 
L 322.198471 205.669372 
L 322.480485 205.99715 
L 323.044513 209.102781 
L 323.326527 212.750795 
L 323.608541 211.336188 
L 323.890555 211.100936 
L 324.172569 209.927646 
L 324.454583 202.606455 
L 324.736597 200.524419 
L 325.018611 201.081513 
L 325.300625 203.211682 
L 325.582639 208.398704 
L 325.864653 210.030496 
L 326.146668 210.505903 
L 326.428682 211.738038 
L 326.710696 212.232415 
L 326.99271 212.078076 
L 327.274724 207.325812 
L 327.556738 207.347363 
L 327.838752 212.66485 
L 328.120766 214.538088 
L 328.40278 212.24532 
L 328.966808 219.648198 
L 330.094864 241.454464 
L 330.376878 241.087585 
L 330.658892 265.583696 
L 330.940906 268.48866 
L 331.22292 274.998408 
L 331.504934 278.820763 
L 331.786948 277.673798 
L 332.068962 273.744205 
L 332.350976 272.600854 
L 332.63299 265.236432 
L 333.197018 269.531355 
L 333.479032 269.106018 
L 333.761046 267.225941 
L 334.04306 269.787384 
L 334.325074 258.426264 
L 334.607088 252.461351 
L 334.889102 258.035125 
L 335.171116 260.046442 
L 335.45313 256.253123 
L 335.735144 250.154904 
L 336.299172 223.99061 
L 336.581186 216.186398 
L 336.8632 215.150542 
L 337.145214 213.468164 
L 337.427229 214.362843 
L 337.709243 214.608935 
L 337.991257 209.546314 
L 338.273271 211.681774 
L 339.119313 203.963894 
L 339.401327 204.697652 
L 339.683341 205.115375 
L 339.965355 201.17262 
L 340.247369 205.794418 
L 340.529383 207.078043 
L 341.093411 205.575942 
L 341.375425 207.95672 
L 341.657439 203.319952 
L 342.221467 205.294234 
L 342.503481 217.941559 
L 342.785495 215.820035 
L 343.067509 224.756759 
L 343.349523 229.141886 
L 343.631537 227.630236 
L 343.913551 229.303839 
L 344.195565 225.4549 
L 344.477579 223.541529 
L 344.759593 217.45286 
L 345.041607 223.900407 
L 345.323621 221.866893 
L 345.605635 220.909627 
L 346.451677 215.034013 
L 347.297719 211.912638 
L 347.579733 213.362217 
L 347.861747 213.307759 
L 348.143761 214.870254 
L 348.425775 211.697518 
L 348.70779 213.103608 
L 348.989804 219.205956 
L 349.271818 222.8119 
L 349.553832 227.962273 
L 349.835846 229.320357 
L 350.11786 234.983044 
L 350.399874 237.632496 
L 350.681888 234.177149 
L 350.963902 234.756825 
L 351.245916 236.625805 
L 351.52793 234.373558 
L 351.809944 241.496534 
L 352.091958 242.029366 
L 352.373972 240.359635 
L 352.655986 241.894771 
L 352.938 236.191693 
L 353.220014 238.955738 
L 353.502028 239.857386 
L 353.784042 248.386065 
L 354.066056 245.794167 
L 354.34807 247.072114 
L 354.630084 246.6802 
L 354.912098 255.288242 
L 355.194112 256.573803 
L 355.75814 252.469868 
L 356.040154 253.840212 
L 356.322168 251.684363 
L 356.604182 251.091523 
L 356.886196 252.963342 
L 357.16821 250.933828 
L 357.450224 244.127919 
L 357.732238 227.51061 
L 358.014252 223.254917 
L 358.296266 226.268409 
L 358.57828 227.213416 
L 359.142308 219.966684 
L 359.424322 215.935403 
L 359.706336 215.154414 
L 359.98835 216.336221 
L 360.270365 215.847135 
L 360.552379 206.949771 
L 360.834393 212.844225 
L 361.116407 215.880429 
L 361.398421 216.744911 
L 361.680435 211.202238 
L 361.962449 209.271832 
L 362.244463 198.095378 
L 362.526477 196.041992 
L 362.808491 200.793739 
L 363.090505 201.039573 
L 363.654533 214.339227 
L 363.936547 214.442594 
L 364.218561 215.894753 
L 364.782589 210.418152 
L 365.064603 202.649427 
L 365.346617 203.560495 
L 365.628631 196.808269 
L 365.910645 206.621734 
L 366.192659 209.746336 
L 366.474673 215.50684 
L 366.756687 217.615458 
L 367.038701 218.486393 
L 367.320715 209.499599 
L 367.602729 206.743296 
L 367.884743 210.016559 
L 368.166757 205.673888 
L 368.448771 203.216715 
L 368.730785 207.527899 
L 369.012799 205.255262 
L 369.294813 197.577515 
L 370.140855 184.964258 
L 370.422869 184.622672 
L 370.704883 183.783742 
L 370.986897 183.891883 
L 371.268911 191.155261 
L 371.550926 184.904123 
L 371.83294 187.727917 
L 372.114954 187.979815 
L 372.678982 188.874236 
L 372.960996 182.172597 
L 373.525024 173.8602 
L 374.089052 165.88784 
L 374.371066 168.236485 
L 374.65308 171.929149 
L 375.217108 167.600544 
L 375.499122 164.659834 
L 375.781136 164.123259 
L 376.06315 160.071072 
L 376.345164 160.410464 
L 376.627178 166.285303 
L 377.191206 162.865702 
L 377.47322 154.821592 
L 377.755234 165.034972 
L 378.037248 155.743242 
L 378.601276 150.225603 
L 378.88329 134.698478 
L 379.165304 136.802064 
L 379.447318 127.100224 
L 379.729332 126.634495 
L 380.011346 145.618258 
L 380.29336 147.468397 
L 380.575374 146.805357 
L 381.139402 167.814503 
L 381.421416 162.041224 
L 381.70343 152.962033 
L 381.985444 156.593012 
L 382.267458 155.784924 
L 382.549472 157.920126 
L 382.831487 168.945208 
L 383.113501 196.23298 
L 383.395515 170.73534 
L 383.677529 178.723702 
L 383.959543 182.740917 
L 384.523571 193.445061 
L 384.805585 196.691998 
L 385.087599 214.517699 
L 385.369613 191.259273 
L 385.651627 203.237105 
L 385.933641 197.140951 
L 386.215655 199.171109 
L 386.497669 197.937555 
L 387.061697 191.963479 
L 387.343711 195.222805 
L 387.625725 196.199041 
L 387.907739 190.733021 
L 388.189753 189.9821 
L 388.471767 194.89193 
L 388.753781 193.85259 
L 389.035795 188.619886 
L 389.317809 188.487484 
L 389.599823 185.079755 
L 389.881837 193.343889 
L 390.445865 199.511018 
L 390.727879 201.411098 
L 391.009893 199.370486 
L 391.291907 225.370762 
L 391.573921 214.879416 
L 391.855935 216.722457 
L 392.137949 215.451608 
L 392.701977 216.207691 
L 392.983991 217.433374 
L 393.266005 198.895724 
L 393.548019 216.02651 
L 393.830033 218.84269 
L 394.112048 202.854998 
L 394.676076 214.183727 
L 394.95809 218.87379 
L 395.240104 225.796486 
L 395.522118 223.963123 
L 395.804132 226.735815 
L 396.086146 223.434807 
L 396.36816 223.829819 
L 396.650174 225.719316 
L 396.932188 224.654941 
L 397.214202 222.487478 
L 397.496216 225.990314 
L 397.77823 218.576725 
L 398.060244 214.454724 
L 398.342258 213.347764 
L 398.624272 219.355908 
L 398.906286 228.399353 
L 399.1883 229.274804 
L 399.470314 229.496377 
L 399.752328 230.836782 
L 400.034342 215.437929 
L 400.316356 215.850361 
L 400.59837 215.88301 
L 401.162398 223.768263 
L 401.444412 222.728149 
L 402.00844 213.286209 
L 402.290454 211.7081 
L 402.572468 206.864213 
L 402.854482 200.088759 
L 403.136496 199.03303 
L 403.41851 196.460102 
L 403.700524 197.224315 
L 404.264552 188.432381 
L 404.546566 183.091924 
L 405.392609 177.543959 
L 405.674623 177.977426 
L 405.956637 182.043809 
L 406.238651 190.724633 
L 406.520665 193.353309 
L 406.802679 191.966963 
L 407.084693 183.240327 
L 407.930735 176.333375 
L 408.212749 178.14196 
L 408.494763 183.16006 
L 408.776777 182.022774 
L 409.058791 181.358701 
L 409.904833 187.603774 
L 410.186847 188.091441 
L 410.468861 189.882863 
L 411.032889 201.355349 
L 411.314903 199.371906 
L 411.596917 202.116336 
L 412.160945 211.001054 
L 412.442959 210.266264 
L 412.724973 212.112144 
L 413.006987 207.280258 
L 413.289001 200.474995 
L 413.571015 200.275231 
L 413.853029 198.181194 
L 414.417057 192.345456 
L 414.699071 191.92541 
L 414.981085 191.715194 
L 415.263099 190.431827 
L 416.955184 179.772333 
L 417.237198 179.926286 
L 417.519212 177.803085 
L 417.801226 166.487003 
L 418.08324 166.709479 
L 418.365254 168.795256 
L 418.647268 193.475129 
L 418.929282 179.683678 
L 419.211296 185.42005 
L 419.49331 177.772501 
L 419.775324 189.763108 
L 420.057338 193.589464 
L 420.339352 195.757831 
L 420.621366 200.491771 
L 420.90338 202.168729 
L 421.185394 205.035496 
L 421.749422 208.401156 
L 422.31345 207.432275 
L 422.595464 209.918226 
L 423.159492 223.447325 
L 423.72352 228.697579 
L 424.005534 229.313518 
L 424.287548 232.338237 
L 424.851576 240.875949 
L 425.13359 242.495869 
L 425.415604 241.578478 
L 425.697618 241.982006 
L 425.979632 241.807665 
L 426.261646 242.008332 
L 426.54366 236.417653 
L 426.825674 251.933809 
L 427.389702 230.887368 
L 427.671716 243.623606 
L 427.95373 247.63837 
L 428.517759 233.151746 
L 428.799773 236.659873 
L 429.081787 247.143477 
L 429.363801 244.630168 
L 429.645815 249.433406 
L 429.927829 222.77409 
L 430.209843 253.543276 
L 430.491857 246.615548 
L 430.773871 246.826151 
L 431.055885 254.026168 
L 431.337899 267.790003 
L 431.619913 265.743843 
L 431.901927 262.411864 
L 432.183941 252.046725 
L 432.465955 264.591071 
L 432.747969 239.982819 
L 433.029983 257.899626 
L 433.594011 253.616317 
L 433.876025 259.742409 
L 434.158039 256.94907 
L 434.722067 243.81795 
L 435.004081 253.76472 
L 435.286095 251.476985 
L 435.568109 247.406989 
L 435.850123 246.423139 
L 436.132137 249.162279 
L 436.414151 248.427618 
L 436.696165 242.731637 
L 436.978179 247.303623 
L 437.260193 241.710751 
L 437.542207 250.924666 
L 438.106235 246.576188 
L 438.388249 239.819317 
L 438.670263 243.741554 
L 438.952277 235.645568 
L 439.234291 234.923166 
L 439.516306 242.216484 
L 440.080334 241.431236 
L 441.490404 236.98778 
L 441.772418 237.110632 
L 442.054432 223.521656 
L 442.336446 231.253344 
L 442.61846 228.969738 
L 442.900474 217.54345 
L 443.182488 218.868241 
L 443.464502 218.861273 
L 443.746516 219.205827 
L 444.02853 229.843253 
L 444.310544 223.332345 
L 444.592558 224.322776 
L 444.874572 223.159938 
L 445.156586 223.029731 
L 445.4386 229.695753 
L 445.720614 231.185723 
L 446.002628 219.484309 
L 446.284642 219.526894 
L 446.566656 216.14962 
L 446.84867 217.083658 
L 447.694712 215.911916 
L 447.976726 215.772288 
L 448.25874 216.137102 
L 448.540754 214.924969 
L 449.104782 213.848077 
L 449.386796 214.073521 
L 449.66881 217.831869 
L 449.950824 214.70701 
L 450.232838 214.583512 
L 450.796867 222.210286 
L 451.078881 222.139439 
L 451.642909 230.486679 
L 452.488951 256.757049 
L 452.770965 259.122728 
L 453.052979 259.748216 
L 453.334993 258.04932 
L 453.617007 262.466837 
L 453.899021 260.6016 
L 454.181035 247.860071 
L 454.463049 240.264656 
L 454.745063 227.502996 
L 455.027077 221.545309 
L 455.309091 200.417053 
L 455.309091 200.417053 
" style="fill:none;stroke:#ff7f0e;stroke-linecap:square;stroke-width:1.5;"/>
   </g>
   <g id="patch_3">
    <path d="M 29.2 333.36 
L 29.2 7.2 
" style="fill:none;stroke:#000000;stroke-linecap:square;stroke-linejoin:miter;stroke-width:0.8;"/>
   </g>
   <g id="patch_4">
    <path d="M 475.6 333.36 
L 475.6 7.2 
" style="fill:none;stroke:#000000;stroke-linecap:square;stroke-linejoin:miter;stroke-width:0.8;"/>
   </g>
   <g id="patch_5">
    <path d="M 29.2 333.36 
L 475.6 333.36 
" style="fill:none;stroke:#000000;stroke-linecap:square;stroke-linejoin:miter;stroke-width:0.8;"/>
   </g>
   <g id="patch_6">
    <path d="M 29.2 7.2 
L 475.6 7.2 
" style="fill:none;stroke:#000000;stroke-linecap:square;stroke-linejoin:miter;stroke-width:0.8;"/>
   </g>
   <g id="legend_1">
    <g id="patch_7">
     <path d="M 406.6 43.559375 
L 468.6 43.559375 
Q 470.6 43.559375 470.6 41.559375 
L 470.6 14.2 
Q 470.6 12.2 468.6 12.2 
L 406.6 12.2 
Q 404.6 12.2 404.6 14.2 
L 404.6 41.559375 
Q 404.6 43.559375 406.6 43.559375 
z
" style="fill:#ffffff;opacity:0.8;stroke:#cccccc;stroke-linejoin:miter;"/>
    </g>
    <g id="line2d_19">
     <path d="M 408.6 20.707813 
L 428.6 20.707813 
" style="fill:none;stroke:#1f77b4;stroke-linecap:square;stroke-width:1.5;"/>
    </g>
    <g id="line2d_20"/>
    <g id="text_17">
     <!--  -->
     <g transform="translate(436.6 24.207813)scale(0.1 -0.1)">
      <defs>
       <path d="M 3550 5100 
Q 3450 4925 3400 4625 
L 4850 4625 
Q 5175 4625 5725 4650 
L 5725 4250 
Q 5200 4275 4850 4275 
L 3350 4275 
L 3300 3850 
L 5050 3850 
Q 5025 3550 5025 3150 
L 5025 1075 
L 5400 1075 
Q 5800 1075 6075 1100 
L 6075 625 
Q 5575 650 4900 650 
L 1450 650 
Q 775 650 350 625 
L 350 1100 
Q 725 1075 1100 1075 
L 1425 1075 
L 1425 3075 
Q 1425 3450 1400 3850 
L 2825 3850 
L 2850 4275 
L 1400 4275 
Q 1050 4275 625 4250 
L 625 4650 
Q 1175 4625 1375 4625 
L 2925 4625 
Q 2950 4875 2950 5125 
Q 3300 5100 3550 5100 
z
M 4075 525 
Q 4500 425 4925 250 
Q 5350 75 5825 -150 
Q 5550 -425 5450 -575 
Q 5025 -300 4550 -100 
Q 4075 100 3800 175 
Q 3925 350 4075 525 
z
M 4525 3150 
L 4525 3475 
L 1925 3475 
L 1925 3150 
L 4525 3150 
z
M 4525 1075 
L 4525 1400 
L 1925 1400 
L 1925 1075 
L 4525 1075 
z
M 2775 200 
Q 2375 -25 1875 -225 
Q 1375 -425 950 -575 
Q 775 -400 600 -250 
Q 1225 -50 1625 137 
Q 2025 325 2350 525 
Q 2550 350 2775 200 
z
M 4525 1775 
L 4525 2075 
L 1925 2075 
L 1925 1775 
L 4525 1775 
z
M 4525 2475 
L 4525 2775 
L 1925 2775 
L 1925 2475 
L 4525 2475 
z
" id="SimHei-771f" transform="scale(0.015625)"/>
       <path d="M 4125 3500 
Q 4050 3200 4000 2675 
Q 3950 2150 3850 1550 
L 5025 1550 
Q 5475 1550 5975 1575 
L 5975 1100 
Q 5450 1125 5000 1125 
L 3725 1125 
Q 3500 625 3050 250 
Q 2600 -125 2000 -337 
Q 1400 -550 925 -675 
Q 825 -375 500 -200 
Q 1225 -125 2050 212 
Q 2875 550 3200 1125 
L 1425 1125 
Q 975 1125 425 1100 
L 425 1575 
Q 1000 1550 1425 1550 
L 3375 1550 
Q 3450 1975 3487 2462 
Q 3525 2950 3500 3650 
Q 3800 3550 4125 3500 
z
M 3250 5250 
Q 3450 4850 3600 4375 
L 5775 4375 
Q 5750 4100 5750 3825 
Q 5750 3575 5775 3275 
L 5200 3275 
L 5200 3975 
L 1225 3975 
L 1225 3225 
L 675 3225 
Q 700 3525 700 3800 
Q 700 4100 675 4375 
L 2975 4375 
Q 2900 4675 2700 5075 
Q 2900 5150 3250 5250 
z
M 4000 825 
Q 4550 525 5050 262 
Q 5550 0 5925 -225 
Q 5750 -425 5550 -650 
Q 5100 -325 4575 -37 
Q 4050 250 3675 400 
Q 3875 650 4000 825 
z
M 1175 2750 
Q 1600 2550 2350 2050 
Q 2250 1900 2050 1650 
Q 1350 2175 925 2350 
Q 1075 2500 1175 2750 
z
M 3150 2825 
Q 2975 2625 2850 2425 
Q 2050 3000 1675 3125 
Q 1800 3300 1950 3525 
L 3150 2825 
z
" id="SimHei-5b9e" transform="scale(0.015625)"/>
       <path d="M 3675 4450 
L 3675 5100 
Q 3975 5075 4350 5050 
Q 4225 4875 4200 4450 
L 5125 4450 
Q 5550 4450 5875 4475 
L 5875 4025 
Q 5525 4050 5125 4050 
L 4175 4050 
L 4125 3500 
L 5400 3500 
Q 5375 3200 5375 2700 
L 5375 150 
Q 5875 150 6100 175 
L 6100 -275 
Q 5775 -250 5200 -250 
L 2850 -250 
Q 2275 -250 1900 -275 
L 1900 175 
Q 2125 150 2600 150 
L 2600 2700 
Q 2600 3175 2575 3500 
L 3600 3500 
L 3650 4050 
L 3200 4050 
Q 2575 4050 2225 4025 
L 2225 4475 
Q 2550 4450 3200 4450 
L 3675 4450 
z
M 2225 4900 
Q 2025 4675 1650 3750 
L 1650 450 
Q 1650 -75 1675 -550 
L 1150 -550 
Q 1175 -125 1175 375 
L 1175 2950 
Q 875 2450 625 2150 
Q 425 2425 250 2575 
Q 500 2825 937 3537 
Q 1375 4250 1625 5150 
Q 1975 4975 2225 4900 
z
M 4925 2650 
L 4925 3150 
L 3075 3150 
L 3075 2650 
L 4925 2650 
z
M 4925 150 
L 4925 625 
L 3075 625 
L 3075 150 
L 4925 150 
z
M 4925 1000 
L 4925 1450 
L 3075 1450 
L 3075 1000 
L 4925 1000 
z
M 4925 1825 
L 4925 2275 
L 3075 2275 
L 3075 1825 
L 4925 1825 
z
" id="SimHei-503c" transform="scale(0.015625)"/>
      </defs>
      <use xlink:href="#SimHei-771f"/>
      <use x="100" xlink:href="#SimHei-5b9e"/>
      <use x="200" xlink:href="#SimHei-503c"/>
     </g>
    </g>
    <g id="line2d_21">
     <path d="M 408.6 34.809375 
L 428.6 34.809375 
" style="fill:none;stroke:#ff7f0e;stroke-linecap:square;stroke-width:1.5;"/>
    </g>
    <g id="line2d_22"/>
    <g id="text_18">
     <!--  -->
     <g transform="translate(436.6 38.309375)scale(0.1 -0.1)">
      <defs>
       <path d="M 5200 4800 
Q 5575 4800 5950 4825 
L 5950 4400 
Q 5575 4425 5200 4425 
L 4500 4425 
Q 4425 4050 4350 3600 
L 5725 3600 
Q 5700 3225 5700 2800 
L 5700 1725 
Q 5700 1300 5725 850 
L 5250 850 
L 5250 3225 
L 3550 3225 
L 3550 800 
L 3075 800 
Q 3100 1375 3100 1725 
L 3100 2775 
Q 3100 3175 3075 3600 
L 3900 3600 
Q 4000 4150 4000 4425 
L 3725 4425 
Q 3300 4425 2850 4400 
L 2850 4825 
Q 3325 4800 3725 4800 
L 5200 4800 
z
M 2600 1775 
Q 2350 1825 2150 1825 
Q 2250 2250 2300 2450 
L 1750 2450 
L 1750 125 
Q 1725 -300 1425 -400 
Q 1125 -500 750 -500 
Q 700 -225 575 25 
Q 1125 -25 1212 37 
Q 1300 100 1300 350 
L 1300 2450 
L 1025 2450 
Q 700 2450 350 2425 
L 350 2850 
Q 700 2825 1000 2825 
L 2850 2825 
Q 2725 2325 2600 1775 
z
M 4725 2875 
Q 4625 2575 4600 2100 
Q 4575 1625 4462 1037 
Q 4350 450 3962 62 
Q 3575 -325 2925 -675 
Q 2700 -500 2475 -350 
Q 3075 -125 3437 200 
Q 3800 525 3950 937 
Q 4100 1350 4137 1850 
Q 4175 2350 4175 2925 
L 4725 2875 
z
M 1625 2900 
Q 1275 3275 800 3650 
Q 925 3775 1075 3950 
Q 1250 3825 1425 3675 
Q 1750 4150 1950 4375 
L 1400 4375 
Q 900 4375 450 4350 
L 450 4775 
Q 900 4750 1375 4750 
L 2575 4750 
L 2575 4375 
Q 2200 4100 1725 3400 
L 1950 3200 
Q 1750 3025 1625 2900 
z
M 4775 725 
Q 5725 0 6075 -325 
Q 5850 -500 5725 -650 
Q 5400 -325 5137 -87 
Q 4875 150 4525 350 
Q 4650 525 4775 725 
z
" id="SimHei-9884" transform="scale(0.015625)"/>
       <path d="M 4025 4725 
Q 4000 4475 4000 4000 
L 4000 2225 
Q 4000 1775 4025 1350 
L 3550 1350 
L 3550 4325 
L 2350 4325 
L 2350 1325 
L 1900 1325 
Q 1925 1775 1925 2225 
L 1925 4000 
Q 1925 4200 1900 4725 
L 4025 4725 
z
M 5900 5075 
Q 5875 4800 5875 4375 
L 5875 0 
Q 5875 -325 5650 -425 
Q 5425 -525 4975 -600 
Q 4925 -325 4775 -50 
Q 5125 -50 5262 -25 
Q 5400 0 5400 250 
L 5400 4375 
Q 5400 4775 5375 5075 
L 5900 5075 
z
M 3275 3725 
Q 3225 3400 3200 2325 
Q 3175 1250 2837 550 
Q 2500 -150 2075 -600 
Q 1850 -400 1600 -325 
Q 2200 250 2475 962 
Q 2750 1675 2762 2475 
Q 2775 3275 2725 3800 
Q 3000 3750 3275 3725 
z
M 4950 4275 
Q 4925 4000 4925 3575 
L 4925 1825 
Q 4925 1300 4950 850 
L 4450 850 
Q 4475 1150 4475 1825 
L 4475 3575 
Q 4475 4000 4450 4275 
L 4950 4275 
z
M 1700 1675 
Q 1375 1075 1112 487 
Q 850 -100 725 -400 
Q 500 -200 200 -25 
Q 475 300 762 850 
Q 1050 1400 1250 2000 
Q 1475 1825 1700 1675 
z
M 3400 1050 
Q 3800 650 4300 -125 
Q 4100 -225 3875 -450 
Q 3475 275 3025 750 
Q 3225 875 3400 1050 
z
M 600 3525 
Q 1125 3125 1500 2775 
Q 1300 2575 1150 2375 
Q 825 2775 300 3150 
Q 450 3300 600 3525 
z
M 1350 4000 
Q 950 4375 475 4675 
Q 625 4850 775 5050 
Q 1300 4700 1675 4375 
Q 1500 4250 1350 4000 
z
" id="SimHei-6d4b" transform="scale(0.015625)"/>
      </defs>
      <use xlink:href="#SimHei-9884"/>
      <use x="100" xlink:href="#SimHei-6d4b"/>
      <use x="200" xlink:href="#SimHei-503c"/>
     </g>
    </g>
   </g>
  </g>
 </g>
 <defs>
  <clipPath id="p9689d2cebc">
   <rect height="326.16" width="446.4" x="29.2" y="7.2"/>
  </clipPath>
 </defs>
</svg>
